<svg xmlns="http://www.w3.org/2000/svg" viewBox="0 0 482.17 111.68"><defs><style>.cls-1{fill:#231f20;}</style></defs><title>Asset 1</title><g id="Layer_2" data-name="Layer 2"><g id="Layer_1-2" data-name="Layer 1"><circle class="cls-1" cx="9.2" cy="55.61" r="6.51"/><circle class="cls-1" cx="52.66" cy="5.6" r="5.6"/><circle class="cls-1" cx="37.41" cy="6.59" r="5.6"/><circle class="cls-1" cx="23.2" cy="12.87" r="6.12"/><circle class="cls-1" cx="13.03" cy="24.27" r="6.28"/><circle class="cls-1" cx="8.92" cy="39.46" r="8.92"/><circle class="cls-1" cx="15.8" cy="69.58" r="6.88"/><circle class="cls-1" cx="28.75" cy="78.17" r="5.6"/><path class="cls-1" d="M75.15,54.4a.48.48,0,0,1-.13.39c-.26,2.36-2.75,2.1-4,3.54-.66.65,0,1.3.39,1.82a1.65,1.65,0,0,1,.52,1.05c-.13.65-.26,1.44-1.31,1.7a7.89,7.89,0,0,1-2,.26s.53.66.66.66a3,3,0,0,1,.52,1.83c0,.39-.13,1-.65,1.17a4.62,4.62,0,0,1-1.31-.26,5.53,5.53,0,0,0-1.44.26c-.26,0-.13.26-.13.53s.13.52.13.78c.26,1.44.13,2.88-1.18,3.79a4.31,4.31,0,0,1-2.22.52c-3.14,0-6-1.82-8.89-3-1.05-.39-2-.79-3-1.18A14.55,14.55,0,0,0,49,67.35c-1.44-.66-3.66-1.83-5.23-1.57-2-5.76-.52-12.16,2.49-17.39a36.26,36.26,0,0,1,4.83-6.28c1.7-1.83,3.53-3.53,5.36-5.23,2.36-2.09,4.71-4.18,7.06-6.14,2.1-1.7,4.19-3.4,6.28-5a13.31,13.31,0,0,1,1.44,5.62h.13c.13,1.57.26,3,.39,4.45A65.8,65.8,0,0,1,71.62,43c-.26,2-1.05,4.18.26,6C73.06,50.61,75.15,52.31,75.15,54.4Z"/><path class="cls-1" d="M37.66,95.81c-.39-.3-.75-.6-1.1-.89-.72-.62-1.34-1.2-1.84-1.7Z"/><path class="cls-1" d="M74.23,18.45c-.52.65-1.17,1.31-1.83,2.09-1.56,1.44-3.4,3-5.49,4.71s-4.57,3.53-7.06,5.62h-.13c-2.74,2.35-5.62,4.84-8.63,7.71q-2.36,2.36-4.7,5.1c-6.54,7.45-7.2,14.78-5.5,21.57a68.45,68.45,0,0,0,5.37,13.47c.13.13.13.26.26.39l1.17,2.62c.13.13.13.26.26.39,2.1,4.84,3.14,8.89.53,12a3.51,3.51,0,0,0-.66.78h-.13l-1.43,1.18c-2.88,2-6,1.7-8.9.52a22.07,22.07,0,0,1-4.83-2.74l-3-2.62a20.21,20.21,0,0,0,3.14.26,7.35,7.35,0,0,0,4.7-1.3,3.34,3.34,0,0,0,.79-.66v-.13c2-2.22,2.48-6.8-.79-15.43a56.25,56.25,0,0,0-3.53-8.1c-5-9.94-6.27-17-5.23-22.1a26.58,26.58,0,0,1-.39-4.31c0-7.59,3.79-12.16,9.15-15.3A40.44,40.44,0,0,1,45,20.93c4.83-1.57,10.06-2.74,14.64-4.05,6.93-1.83,10.33-4.84,11.9-7.72A10.72,10.72,0,0,0,72.14.8C78.42,8.51,78.16,13.48,74.23,18.45Z"/><path class="cls-1" d="M142,55.88a5.48,5.48,0,0,1-5.56,5.45H98.08a16.93,16.93,0,0,0,16,11.45,21.79,21.79,0,0,0,12.45-3.67c2.56-1.67,6-.11,7.33,2.55s-.11,5.68-2.66,7.34c-7.34,4.89-13,4.78-17.12,4.78a27.9,27.9,0,0,1,0-55.79C127.53,28,142,37.77,142,55.88Zm-43.9-5.56H130.2C127.86,42.55,120.75,39,114.08,39A17,17,0,0,0,98.08,50.32Z"/><path class="cls-1" d="M182.14,33.54a5.58,5.58,0,0,1-5.56,5.56A16.89,16.89,0,0,0,159.68,56V78.33a5.5,5.5,0,1,1-11,0V56a27.93,27.93,0,0,1,27.9-27.91A5.49,5.49,0,0,1,182.14,33.54Z"/><path class="cls-1" d="M237.62,55.88a5.49,5.49,0,0,1-5.56,5.45H193.71a17,17,0,0,0,16,11.45,21.8,21.8,0,0,0,12.46-3.67c2.55-1.67,6-.11,7.33,2.55s-.11,5.68-2.66,7.34c-7.34,4.89-13,4.78-17.13,4.78a27.9,27.9,0,0,1,0-55.79C223.16,28,237.62,37.77,237.62,55.88Zm-43.91-5.56h32.12C223.5,42.55,216.38,39,209.71,39A17,17,0,0,0,193.71,50.32Z"/><path class="cls-1" d="M300.12,83.78a27.93,27.93,0,0,1-53,12.23,5.44,5.44,0,0,1,2.56-7.34A5.51,5.51,0,0,1,257,91.12a16.91,16.91,0,0,0,32.13-7V78a28.23,28.23,0,0,1-16.89,5.78,27.9,27.9,0,1,1,27.9-27.9Zm-11-27.9a16.9,16.9,0,1,0-16.89,16.9A17,17,0,0,0,289.11,55.88Z"/><path class="cls-1" d="M363.16,11.76V78.22a5.57,5.57,0,0,1-5.56,5.56,5.5,5.5,0,0,1-5.55-5.56V50.77H317.7V78.22a5.57,5.57,0,0,1-5.55,5.56,5.5,5.5,0,0,1-5.56-5.56V11.76a5.57,5.57,0,0,1,5.56-5.56,5.64,5.64,0,0,1,5.55,5.56V39.65h34.35V11.76A5.57,5.57,0,0,1,357.6,6.2,5.64,5.64,0,0,1,363.16,11.76Z"/><path class="cls-1" d="M424.88,56.33V78.12a5.36,5.36,0,0,1-5.55,5.55A5.85,5.85,0,0,1,414,78.12c-4.78,4-10.12,5.55-16.46,5.55-15.66,0-28.12-11.67-28.12-27.34A28,28,0,0,1,397.54,28.2C413.22,28.2,424.88,40.66,424.88,56.33Zm-10.88,0c0-9.34-7.12-17.23-16.46-17.23a17.46,17.46,0,0,0-17.22,17.23c0,9.33,7.89,16.45,17.22,16.45A16.15,16.15,0,0,0,414,56.33Z"/><path class="cls-1" d="M482.17,33.54a5.57,5.57,0,0,1-5.55,5.56A16.89,16.89,0,0,0,459.72,56V78.33a5.51,5.51,0,1,1-11,0V56a27.93,27.93,0,0,1,27.91-27.91A5.48,5.48,0,0,1,482.17,33.54Z"/><path class="cls-1" d="M445.14,80a4.28,4.28,0,0,1-2.7,2.84,5.43,5.43,0,0,1-4.57-.62c-2.12-1.33-3.23-3.77-4.05-6.12a46.71,46.71,0,0,1-2.31-19.87,45.38,45.38,0,0,1,2.13-9.91c1.06-3.12,2.85-5.89,4-8.92a30.64,30.64,0,0,0,1-3,17.51,17.51,0,0,0,.48-2.5,18.36,18.36,0,0,0-2.84-11.58,28.58,28.58,0,0,0-6.12-6.81c-2.25-1.86-5.06-4.22-7.79-5.3,5.95,2.34,12.23,5.15,16.63,9.93a19.86,19.86,0,0,1,5.36,13.51c-.16,11.44-8.64,21.52-7.68,33a11.78,11.78,0,0,0,2.47,6.56c2,2.4,6.3,4.41,6.05,8.07A3.11,3.11,0,0,1,445.14,80Z"/><path class="cls-1" d="M435.19,24.84a11.47,11.47,0,0,0-1.51-3.37c-.68-1-1.55-1.77-2.32-2.67s-1.48-1.78-2.31-2.58a18.87,18.87,0,0,0-2.7-2.17,27.83,27.83,0,0,1,3.08,1.8C432.56,17.85,435.27,20.88,435.19,24.84Z"/></g></g></svg>